<svg xmlns="http://www.w3.org/2000/svg" viewBox="0 0 512 512">
  <defs>
    <linearGradient id="bg" x1="0%" y1="0%" x2="100%" y2="100%">
      <stop offset="0%" style="stop-color:#4f46e5"/>
      <stop offset="100%" style="stop-color:#7c3aed"/>
    </linearGradient>
  </defs>
  <rect width="512" height="512" rx="96" fill="url(#bg)"/>
  <g fill="white">
    <!-- Document icon -->
    <path d="M160 96h128l64 64v256c0 17.7-14.3 32-32 32H160c-17.7 0-32-14.3-32-32V128c0-17.7 14.3-32 32-32z" opacity="0.9"/>
    <path d="M288 96v64h64" fill="none" stroke="white" stroke-width="8"/>
    <!-- Checkmark -->
    <circle cx="340" cy="380" r="60" fill="#22c55e"/>
    <path d="M310 380l20 20 40-40" fill="none" stroke="white" stroke-width="12" stroke-linecap="round" stroke-linejoin="round"/>
    <!-- Lines on document -->
    <rect x="168" y="200" width="120" height="12" rx="6" opacity="0.4"/>
    <rect x="168" y="232" width="80" height="12" rx="6" opacity="0.4"/>
    <rect x="168" y="264" width="100" height="12" rx="6" opacity="0.4"/>
  </g>
</svg>
